<svg width="182" height="75" viewBox="0 0 182 75" fill="none" xmlns="http://www.w3.org/2000/svg">
<path d="M12.483 63H10C5.02944 63 1 58.9706 1 54V44.6349C1 39.8861 4.71913 35.9492 9.45999 35.6743C52.0715 33.2039 73.324 33.888 82.1323 35.0507C85.2325 35.4599 87 38.0942 87 41.2213V54C87 58.9706 82.9706 63 78 63H27.875" stroke="#1E293B"/>
<path d="M104.517 30H107C111.971 30 116 25.9706 116 21V11.6349C116 6.88608 112.281 2.94918 107.54 2.67433C64.9285 0.203884 43.676 0.888024 34.8677 2.0507C31.7675 2.45992 30 5.09425 30 8.22131V21C30 25.9706 34.0294 30 39 30H89.125" stroke="#1E293B"/>
<path d="M12 63L13.0303 67L28 63" stroke="#1E293B" stroke-linecap="round"/>
<path d="M105 30L103.97 34L89 30" stroke="#1E293B" stroke-linecap="round"/>
<path d="M98.098 55.606C98.098 54.55 98.236 53.53 98.512 52.546C98.788 51.562 99.178 50.644 99.682 49.792C100.186 48.928 100.786 48.148 101.482 47.452C102.19 46.744 102.97 46.138 103.822 45.634C104.686 45.13 105.61 44.74 106.594 44.464C107.578 44.188 108.604 44.05 109.672 44.05C110.728 44.05 111.748 44.188 112.732 44.464C113.716 44.74 114.634 45.13 115.486 45.634C116.35 46.138 117.13 46.744 117.826 47.452C118.534 48.148 119.14 48.928 119.644 49.792C120.148 50.644 120.538 51.562 120.814 52.546C121.09 53.53 121.228 54.55 121.228 55.606C121.228 56.674 121.09 57.7 120.814 58.684C120.538 59.668 120.148 60.592 119.644 61.456C119.14 62.308 118.534 63.088 117.826 63.796C117.13 64.492 116.35 65.092 115.486 65.596C114.634 66.1 113.716 66.49 112.732 66.766C111.748 67.042 110.728 67.18 109.672 67.18C108.076 67.18 106.576 66.88 105.172 66.28C103.768 65.668 102.538 64.84 101.482 63.796C100.438 62.74 99.61 61.51 98.998 60.106C98.398 58.702 98.098 57.202 98.098 55.606ZM102.346 55.642C102.346 56.65 102.538 57.604 102.922 58.504C103.306 59.392 103.828 60.172 104.488 60.844C105.148 61.516 105.922 62.05 106.81 62.446C107.71 62.83 108.664 63.022 109.672 63.022C110.68 63.022 111.628 62.83 112.516 62.446C113.404 62.05 114.178 61.516 114.838 60.844C115.51 60.16 116.038 59.368 116.422 58.468C116.806 57.568 116.998 56.614 116.998 55.606C116.998 54.598 116.806 53.65 116.422 52.762C116.038 51.874 115.51 51.094 114.838 50.422C114.178 49.75 113.404 49.222 112.516 48.838C111.628 48.442 110.68 48.244 109.672 48.244C108.664 48.244 107.71 48.442 106.81 48.838C105.922 49.222 105.148 49.756 104.488 50.44C103.828 51.112 103.306 51.898 102.922 52.798C102.538 53.686 102.346 54.634 102.346 55.642ZM133.256 65.974C133.052 66.394 132.758 66.706 132.374 66.91C132.002 67.114 131.612 67.204 131.204 67.18C130.82 67.204 130.46 67.108 130.124 66.892C129.788 66.676 129.518 66.376 129.314 65.992L123.14 52.438C123.008 52.174 122.93 51.904 122.906 51.628C122.894 51.34 122.93 51.07 123.014 50.818C123.098 50.554 123.23 50.32 123.41 50.116C123.59 49.9 123.818 49.726 124.094 49.594C124.358 49.462 124.628 49.39 124.904 49.378C125.192 49.366 125.462 49.408 125.714 49.504C125.966 49.588 126.2 49.726 126.416 49.918C126.632 50.098 126.806 50.32 126.938 50.584L131.24 61.006L135.596 50.584C135.704 50.32 135.86 50.092 136.064 49.9C136.28 49.708 136.514 49.57 136.766 49.486C137.03 49.39 137.306 49.354 137.594 49.378C137.882 49.39 138.158 49.462 138.422 49.594C138.686 49.714 138.914 49.876 139.106 50.08C139.298 50.284 139.436 50.512 139.52 50.764C139.616 51.016 139.658 51.286 139.646 51.574C139.646 51.85 139.586 52.12 139.466 52.384L133.256 65.974ZM158.229 65.83C158.229 66.274 158.115 66.616 157.887 66.856C157.659 67.084 157.335 67.198 156.915 67.198C156.471 67.198 156.105 67.072 155.817 66.82C155.541 66.556 155.337 66.214 155.205 65.794L154.431 62.716L153.981 62.482V58.342C153.981 58.042 154.035 57.766 154.143 57.514C154.263 57.262 154.419 57.04 154.611 56.848C154.803 56.656 155.025 56.506 155.277 56.398C155.541 56.29 155.817 56.236 156.105 56.236C156.405 56.236 156.681 56.29 156.933 56.398C157.197 56.506 157.425 56.656 157.617 56.848C157.809 57.04 157.959 57.262 158.067 57.514C158.175 57.766 158.229 58.042 158.229 58.342V65.83ZM157.149 58.306C157.149 59.53 156.969 60.682 156.609 61.762C156.261 62.842 155.751 63.784 155.079 64.588C154.407 65.392 153.585 66.028 152.613 66.496C151.653 66.964 150.561 67.198 149.337 67.198C148.113 67.198 146.961 66.964 145.881 66.496C144.813 66.028 143.871 65.392 143.055 64.588C142.251 63.784 141.615 62.842 141.147 61.762C140.679 60.682 140.445 59.53 140.445 58.306C140.445 57.082 140.679 55.936 141.147 54.868C141.615 53.788 142.251 52.846 143.055 52.042C143.871 51.238 144.813 50.602 145.881 50.134C146.961 49.666 148.113 49.432 149.337 49.432C150.561 49.432 151.653 49.666 152.613 50.134C153.585 50.602 154.407 51.238 155.079 52.042C155.751 52.846 156.261 53.788 156.609 54.868C156.969 55.936 157.149 57.082 157.149 58.306ZM153.945 58.306C153.945 57.658 153.825 57.046 153.585 56.47C153.345 55.882 153.015 55.372 152.595 54.94C152.187 54.508 151.701 54.166 151.137 53.914C150.585 53.662 149.985 53.536 149.337 53.536C148.689 53.536 148.083 53.662 147.519 53.914C146.955 54.166 146.463 54.508 146.043 54.94C145.635 55.372 145.311 55.882 145.071 56.47C144.843 57.046 144.729 57.658 144.729 58.306C144.729 58.966 144.843 59.59 145.071 60.178C145.311 60.754 145.635 61.258 146.043 61.69C146.463 62.122 146.955 62.464 147.519 62.716C148.083 62.968 148.689 63.094 149.337 63.094C149.985 63.094 150.585 62.968 151.137 62.716C151.701 62.464 152.187 62.122 152.595 61.69C153.015 61.258 153.345 60.754 153.585 60.178C153.825 59.59 153.945 58.966 153.945 58.306ZM158.229 58.864C158.229 59.164 158.175 59.446 158.067 59.71C157.959 59.962 157.809 60.184 157.617 60.376C157.425 60.568 157.197 60.718 156.933 60.826C156.681 60.934 156.405 60.988 156.105 60.988C155.817 60.988 155.541 60.934 155.277 60.826C155.025 60.718 154.803 60.568 154.611 60.376C154.419 60.184 154.263 59.962 154.143 59.71C154.035 59.446 153.981 59.164 153.981 58.864V54.148L154.431 53.896L155.205 51.52C155.349 50.764 155.583 50.23 155.907 49.918C156.243 49.594 156.633 49.432 157.077 49.432C157.845 49.432 158.229 49.816 158.229 50.584V58.864ZM179.358 65.83C179.358 66.274 179.244 66.616 179.016 66.856C178.788 67.084 178.464 67.198 178.044 67.198C177.6 67.198 177.234 67.072 176.946 66.82C176.67 66.556 176.466 66.214 176.334 65.794L175.56 62.716L175.11 62.482V58.342C175.11 58.042 175.164 57.766 175.272 57.514C175.392 57.262 175.548 57.04 175.74 56.848C175.932 56.656 176.154 56.506 176.406 56.398C176.67 56.29 176.946 56.236 177.234 56.236C177.534 56.236 177.81 56.29 178.062 56.398C178.326 56.506 178.554 56.656 178.746 56.848C178.938 57.04 179.088 57.262 179.196 57.514C179.304 57.766 179.358 58.042 179.358 58.342V65.83ZM178.278 58.306C178.278 59.53 178.098 60.682 177.738 61.762C177.39 62.842 176.88 63.784 176.208 64.588C175.536 65.392 174.714 66.028 173.742 66.496C172.782 66.964 171.69 67.198 170.466 67.198C169.242 67.198 168.09 66.964 167.01 66.496C165.942 66.028 165 65.392 164.184 64.588C163.38 63.784 162.744 62.842 162.276 61.762C161.808 60.682 161.574 59.53 161.574 58.306C161.574 57.082 161.808 55.936 162.276 54.868C162.744 53.788 163.38 52.846 164.184 52.042C165 51.238 165.942 50.602 167.01 50.134C168.09 49.666 169.242 49.432 170.466 49.432C171.69 49.432 172.782 49.666 173.742 50.134C174.714 50.602 175.536 51.238 176.208 52.042C176.88 52.846 177.39 53.788 177.738 54.868C178.098 55.936 178.278 57.082 178.278 58.306ZM175.074 58.306C175.074 57.658 174.954 57.046 174.714 56.47C174.474 55.882 174.144 55.372 173.724 54.94C173.316 54.508 172.83 54.166 172.266 53.914C171.714 53.662 171.114 53.536 170.466 53.536C169.818 53.536 169.212 53.662 168.648 53.914C168.084 54.166 167.592 54.508 167.172 54.94C166.764 55.372 166.44 55.882 166.2 56.47C165.972 57.046 165.858 57.658 165.858 58.306C165.858 58.966 165.972 59.59 166.2 60.178C166.44 60.754 166.764 61.258 167.172 61.69C167.592 62.122 168.084 62.464 168.648 62.716C169.212 62.968 169.818 63.094 170.466 63.094C171.114 63.094 171.714 62.968 172.266 62.716C172.83 62.464 173.316 62.122 173.724 61.69C174.144 61.258 174.474 60.754 174.714 60.178C174.954 59.59 175.074 58.966 175.074 58.306ZM179.358 58.864C179.358 59.164 179.304 59.446 179.196 59.71C179.088 59.962 178.938 60.184 178.746 60.376C178.554 60.568 178.326 60.718 178.062 60.826C177.81 60.934 177.534 60.988 177.234 60.988C176.946 60.988 176.67 60.934 176.406 60.826C176.154 60.718 175.932 60.568 175.74 60.376C175.548 60.184 175.392 59.962 175.272 59.71C175.164 59.446 175.11 59.164 175.11 58.864V54.148L175.56 53.896L176.334 51.52C176.478 50.764 176.712 50.23 177.036 49.918C177.372 49.594 177.762 49.432 178.206 49.432C178.974 49.432 179.358 49.816 179.358 50.584V58.864Z" fill="#1E293B"/>
</svg>
